<?xml version="1.0" standalone="no"?><!DOCTYPE svg PUBLIC "-//W3C//DTD SVG 1.1//EN" "http://www.w3.org/Graphics/SVG/1.1/DTD/svg11.dtd"><svg t="1619578478661" class="icon" viewBox="0 0 1024 1024" version="1.1" xmlns="http://www.w3.org/2000/svg" p-id="2019" xmlns:xlink="http://www.w3.org/1999/xlink" width="200" height="200"><defs><style type="text/css"></style></defs><path d="M0 0m512 0l0 0q512 0 512 512l0 0q0 512-512 512l0 0q-512 0-512-512l0 0q0-512 512-512Z" fill="#3D80FF" p-id="2020"></path><path d="M498.133333 510.634667c-16 1.066667-30.933333-5.333333-46.933333-10.666667-84.266667-27.733333-168.533333-55.466667-251.733333-84.266667-5.333333-2.133333-9.6-4.266667-13.866667-7.466666-5.333333-4.266667-5.333333-9.6 0-13.866667 4.266667-3.2 9.6-6.4 14.933333-7.466667 89.6-26.666667 179.2-53.333333 268.8-81.066666 20.266667-6.4 40.533333-6.4 61.866667 0 88.533333 26.666667 178.133333 53.333333 266.666667 80 5.333333 2.133333 10.666667 4.266667 16 7.466666 6.4 4.266667 6.4 10.666667 0 14.933334-4.266667 3.2-8.533333 5.333333-12.8 6.4-88.533333 29.866667-178.133333 59.733333-267.733334 88.533333a80.384 80.384 0 0 1-35.2 7.466667zM321.066667 514.901333c-12.8-3.2-16 5.333333-16 11.733334v101.333333c0 11.733333 4.266667 19.2 11.733333 26.666667 3.2 3.2 6.4 5.333333 9.6 7.466666 21.333333 14.933333 45.866667 24.533333 71.466667 30.933334 50.133333 13.866667 101.333333 16 152.533333 9.6 33.066667-4.266667 66.133333-12.8 97.066667-26.666667 13.866667-6.4 26.666667-13.866667 36.266666-24.533333 6.4-6.4 9.6-12.8 8.533334-22.4 1.066667-32 1.066667-65.066667 1.066666-98.133334 0-18.133333-12.8-16-18.133333-14.933333-46.933333 16-94.933333 30.933333-141.866667 46.933333a110.08 110.08 0 0 1-69.333333 0l-142.933333-48zM764.8 483.968c-4.266667 1.066667-5.333333 3.2-5.333333 7.466667v89.6c0 3.2-1.066667 6.4-2.133334 9.6-6.4 16-13.866667 32-19.2 48-5.333333 14.933333-2.133333 29.866667 8.533334 41.6 3.2 4.266667 7.466667 7.466667 11.733333 10.666666 4.266667 3.2 10.666667 5.333333 16 6.4 9.6 1.066667 17.066667-4.266667 23.466667-9.6l9.6-9.6c7.466667-9.6 9.6-23.466667 6.4-36.266666-4.266667-18.133333-11.733333-34.133333-20.266667-50.133334a20.565333 20.565333 0 0 1-3.2-10.666666v-98.133334c0-6.4-5.333333-5.333333-7.466667-4.266666l-18.133333 5.333333z" fill="#FFFFFF" p-id="2021"></path></svg>